<?xml version="1.0" standalone="no"?>
<!DOCTYPE svg PUBLIC "-//W3C//DTD SVG 20010904//EN"
 "http://www.w3.org/TR/2001/REC-SVG-20010904/DTD/svg10.dtd">
<svg version="1.0" xmlns="http://www.w3.org/2000/svg"
 width="928.000000pt" height="928.000000pt" viewBox="0 0 928.000000 928.000000"
 preserveAspectRatio="xMidYMid meet">
<metadata>
Created by potrace 1.14, written by Peter Selinger 2001-2017
</metadata>
<g transform="translate(0.000000,928.000000) scale(0.100000,-0.100000)"
fill="#000000" stroke="none">
<path d="M1300 5060 l0 -460 170 0 170 0 0 280 0 280 680 0 680 0 0 180 0 180
-850 0 -850 0 0 -460z"/>
<path d="M6160 5340 l0 -180 680 0 680 0 0 -280 0 -280 170 0 170 0 0 460 0
460 -850 0 -850 0 0 -180z"/>
<path d="M4981 4916 l-50 -74 76 -46 c41 -25 78 -46 82 -46 3 0 27 35 53 77
37 61 45 80 36 91 -17 20 -110 72 -130 72 -10 0 -37 -30 -67 -74z"/>
<path d="M5419 4557 c-104 -39 -267 -154 -443 -314 l-109 -99 -71 8 c-120 12
-146 28 -192 108 -21 39 -43 68 -49 67 -5 -2 -25 -43 -44 -91 l-34 -88 37 -72
c35 -69 76 -205 76 -253 0 -105 -156 -214 -385 -269 -96 -23 -263 -24 -336 -2
-105 33 -185 129 -208 250 -17 95 13 234 75 349 20 36 24 53 17 60 -25 25
-134 -172 -175 -316 -16 -58 -22 -108 -23 -180 0 -89 3 -107 27 -158 81 -174
232 -243 472 -217 180 20 335 86 452 193 82 74 123 174 154 376 5 35 11 65 12
66 2 1 44 -4 93 -12 110 -17 341 -11 465 12 179 34 318 97 383 175 16 18 44
65 64 103 30 61 35 78 31 123 -5 61 -38 118 -94 160 -29 23 -49 29 -98 31 -34
2 -77 -3 -97 -10z m54 -201 c26 -8 65 -27 87 -43 38 -28 39 -31 22 -46 -29
-27 -143 -75 -227 -98 -86 -22 -385 -40 -385 -23 1 10 14 20 120 91 92 62 149
91 220 114 68 22 103 23 163 5z"/>
<path d="M1300 3230 l0 -460 850 0 850 0 0 180 0 180 -680 0 -680 0 0 280 0
280 -170 0 -170 0 0 -460z"/>
<path d="M7520 3410 l0 -280 -680 0 -680 0 0 -180 0 -180 850 0 850 0 0 460 0
460 -170 0 -170 0 0 -280z"/>
</g>
</svg>
